<svg fill="none" xmlns="http://www.w3.org/2000/svg" viewBox="0 0 25 24">
  <path d="M6.52488 11.9999C9.83855 11.9999 12.5248 9.31365 12.5248 5.99998C12.5248 9.3129 15.2098 11.9987 18.5224 11.9999C15.2098 12.0013 12.5248 14.687 12.5248 17.9999C12.5248 14.6863 9.83855 11.9999 6.52488 11.9999C3.21121 11.9999 0.524902 14.6863 0.524902 17.9999V23.9999H6.52488C9.83855 23.9999 12.5248 21.3136 12.5248 17.9999C12.5248 21.3136 15.2112 23.9999 18.5248 23.9999H24.5248V17.9999C24.5248 14.687 21.8398 12.0013 18.5272 11.9999C21.8398 11.9987 24.5248 9.3129 24.5248 5.99998V0H18.5248C15.2112 0 12.5248 2.68631 12.5248 5.99998C12.5248 2.68631 9.83855 0 6.52488 0H0.524902V5.99998C0.524902 9.31365 3.21121 11.9999 6.52488 11.9999Z" fill="#fff"/>
</svg>