<svg width="8" height="22" fill="none" xmlns="http://www.w3.org/2000/svg" viewBox="0 0 8 22">
  <path d="M3.59092 7.18072C1.60772 7.18072 0 5.57325 0 3.59036C0 1.60746 1.60772 7.02757e-08 3.59092 1.56964e-07C5.57412 2.43653e-07 7.18184 1.60746 7.18184 3.59036C7.18184 5.57325 5.57412 7.18072 3.59092 7.18072Z" fill="currentColor"/>
  <path d="M3.59428 15.172C1.97164 15.172 0.65625 13.8568 0.65625 12.2344C0.65625 10.6121 1.97164 9.29688 3.59428 9.29688C5.21692 9.29688 6.5323 10.6121 6.5323 12.2344C6.5323 13.8568 5.21692 15.172 3.59428 15.172Z" fill="currentColor"/>
  <path d="M3.52814 22.0094C2.31311 22.0094 1.32813 21.0244 1.32813 19.8094C1.32812 18.5944 2.31311 17.6094 3.52814 17.6094C4.74317 17.6094 5.72815 18.5944 5.72815 19.8094C5.72815 21.0244 4.74317 22.0094 3.52814 22.0094Z" fill="currentColor"/>
</svg>
