<svg fill="none" xmlns="http://www.w3.org/2000/svg" viewBox="0 0 53 52">
  <path d="M45.2115 18.8697C45.9431 19.1348 47.8408 19.7214 48.553 20.0244C49.8317 20.5832 50.9179 21.6077 51.5053 22.8797C52.7274 25.3894 51.9849 28.684 49.6989 30.3101C49.0127 30.8298 48.1819 31.1239 47.3699 31.3706L45.1728 32.077C43.0326 32.7574 41.0074 33.804 39.2355 35.191C36.2704 37.4907 34.077 40.7574 33.0284 44.3535C32.8994 44.7545 32.2769 46.8619 32.1456 47.2595C31.0643 50.7932 27.045 52.4158 23.7614 50.8076C22.3327 50.1174 21.2494 48.8156 20.7732 47.3137C20.7629 47.2768 20.5779 46.6845 20.5607 46.6181L19.9028 44.3985C19.0803 41.5182 17.5681 38.8036 15.4391 36.6749C13.3299 34.5269 10.6323 32.9802 7.76488 32.1316C7.02867 31.9066 6.28976 31.6887 5.5557 31.458C4.79605 31.2311 3.87721 30.9317 3.20122 30.4148C0.438652 28.4992 -0.0191862 24.3199 2.14822 21.7809C2.80929 20.9871 3.6929 20.3904 4.66188 20.05C5.18175 19.8619 7.14578 19.2712 7.71701 19.0921C9.14995 18.6594 10.5308 18.0681 11.8307 17.3183C15.7549 15.0657 18.7311 11.2384 20.0405 6.91106C20.2978 6.15947 20.8172 4.31301 21.1192 3.55448C22.768 -0.584187 28.506 -1.25315 31.1339 2.31185C31.6572 2.99336 31.9529 3.82521 32.2017 4.63634C32.6794 6.07849 33.0675 7.55192 33.6852 8.9441C33.9904 9.62877 34.3293 10.301 34.7116 10.9494C37.2258 15.2178 40.5983 17.3864 45.2115 18.8697Z" fill="#fff"/>
</svg>