<svg fill="none" xmlns="http://www.w3.org/2000/svg" viewBox="0 0 48 48">
  <path d="M25.9157 5.42531C25.6619 4.57934 24.8832 4 24 4C23.1168 4 22.3381 4.57934 22.0843 5.42531C20.6456 10.2209 18.7807 13.6409 16.2108 16.2108C13.6409 18.7807 10.2209 20.6456 5.42531 22.0843C4.57934 22.3381 4 23.1168 4 24C4 24.8832 4.57934 25.6619 5.42531 25.9157C10.2209 27.3544 13.6409 29.2193 16.2108 31.7892C18.7807 34.3591 20.6456 37.7791 22.0843 42.5747C22.3381 43.4207 23.1168 44 24 44C24.8832 44 25.6619 43.4207 25.9157 42.5747C27.3543 37.7791 29.2193 34.3591 31.7892 31.7892C34.3591 29.2193 37.7791 27.3544 42.5747 25.9157C43.4207 25.6619 44 24.8832 44 24C44 23.1168 43.4207 22.3381 42.5747 22.0843C37.7791 20.6456 34.3591 18.7807 31.7892 16.2108C29.2193 13.6409 27.3543 10.2209 25.9157 5.42531Z" fill="url(#a)"/>
  <defs>
    <linearGradient id="a" x1="-6.835" y1="16.882" x2="47.112" y2="18.806" gradientUnits="userSpaceOnUse">
      <stop stop-color="#003C91"/>
      <stop offset=".093" stop-color="#059DFF"/>
      <stop offset=".203" stop-color="#14B3F4"/>
      <stop offset=".505" stop-color="#6549D5"/>
      <stop offset=".695" stop-color="#E33FA1"/>
      <stop offset=".796" stop-color="#FB5343"/>
      <stop offset=".935" stop-color="#FD7B42"/>
    </linearGradient>
  </defs>
</svg>