<svg fill="none" xmlns="http://www.w3.org/2000/svg" viewBox="0 0 20 20">
  <path fill-rule="evenodd" clip-rule="evenodd" d="M15.5926 5.4546C15.5926 6.01238 15.3721 6.54681 14.9788 6.94108L8.33213 13.5831L4.36133 14.2287L5.00787 10.2579L11.6517 3.61495C12.0462 3.22117 12.5808 3 13.1382 3C13.6956 3 14.2302 3.22117 14.6247 3.61495L14.9779 3.96906C15.3721 4.36333 15.5936 4.89776 15.5936 5.45554L15.5926 5.4546ZM13.9875 4.95942L13.6343 4.60532C13.5026 4.47369 13.324 4.39976 13.1377 4.39976C12.9515 4.39976 12.7729 4.47369 12.6412 4.60532L11.8974 5.34903L13.2522 6.68508L13.9875 5.94979C14.1187 5.8184 14.1924 5.6403 14.1924 5.4546C14.1924 5.26891 14.1187 5.09081 13.9875 4.95942ZM6.3187 10.9306L6.05709 12.5348L7.66223 12.2741L12.2618 7.67825L10.9071 6.34219L6.3187 10.9306Z" fill="currentColor"/>
  <path d="M3.45898 15.6016H16.5393V17.003H3.45898V15.6016Z" fill="currentColor"/>
</svg>