<svg fill="none" xmlns="http://www.w3.org/2000/svg" viewBox="0 0 25 24">
  <path d="M24.7031 12.2399H0.708008C0.72647 13.2129 0.863193 14.18 1.11516 15.1199H24.296C24.5479 14.18 24.6847 13.2129 24.7031 12.2399ZM24.1562 15.5999H1.25496C1.51774 16.4363 1.87188 17.2412 2.31096 17.9999H23.1002C23.5393 17.2412 23.8934 16.4363 24.1562 15.5999ZM22.8073 18.4799H2.60388C3.04786 19.1705 3.56121 19.8137 4.13592 20.3999H21.2752C21.85 19.8138 22.3633 19.1705 22.8073 18.4799ZM20.777 20.8799H4.63415C5.35242 21.5334 6.14717 22.0975 7.00102 22.5599H18.4101C19.264 22.0975 20.0587 21.5333 20.777 20.8799ZM17.4164 23.0399H7.99475C9.44098 23.6579 11.0334 23.9999 12.7056 23.9999C14.3778 23.9999 15.9702 23.6579 17.4164 23.0399ZM24.7031 11.7599H0.708008C0.731749 10.4925 0.956667 9.23685 1.37436 8.04H24.0368C24.4546 9.23685 24.6795 10.4925 24.7031 11.7599ZM23.8574 7.56C22.0923 3.13043 17.7645 0 12.7056 0C7.6466 0 3.31884 3.13043 1.55376 7.56H23.8574Z" fill="#fff"/>
</svg>