<svg fill="none" xmlns="http://www.w3.org/2000/svg" viewBox="0 0 24 24">
  <path d="M11.1206 4.01161C11.1206 1.71902 11.1206 0.572665 10.3737 0.142826C9.62693 -0.287252 8.63108 0.285985 6.63953 1.43222L5.19977 2.26093C3.20814 3.40729 2.21238 3.98053 2.21238 4.84021C2.21238 5.70001 3.20814 6.27313 5.19977 7.41948L6.63953 8.24835C8.63115 9.39465 9.627 9.96788 10.3739 9.53798C11.1207 9.10815 11.1207 7.96177 11.1207 5.66917L11.1206 4.01161ZM4.52069 8.592C2.52906 7.44564 1.53331 6.8724 0.786308 7.30236C0.0395508 7.73235 0.0395508 8.87858 0.0395508 11.1713V12.8287C0.0395508 15.1214 0.0395508 16.2677 0.786428 16.6976C1.53331 17.1275 2.52906 16.5543 4.52069 15.408L5.96045 14.5792C7.9521 13.4329 8.94795 12.8598 8.94795 12C8.94795 11.1402 7.9521 10.567 5.96045 9.42075L4.52069 8.592ZM5.19965 16.5804C3.20802 17.7267 2.21226 18.2998 2.21226 19.1596C2.21226 20.0193 3.20802 20.5925 5.19965 21.7389L6.63953 22.5677C8.63115 23.7139 9.627 24.2871 10.3739 23.8573C11.1207 23.4273 11.1207 22.2809 11.1207 19.9883V18.3309C11.1207 16.0382 11.1207 14.8918 10.3738 14.462C9.627 14.0322 8.63115 14.6053 6.63953 15.7516L5.19965 16.5804ZM12.4785 19.9882C12.4785 22.2809 12.4785 23.4273 13.2254 23.8571C13.9722 24.2871 14.968 23.7139 16.9596 22.5675L18.3994 21.7389C20.391 20.5925 21.3868 20.0193 21.3868 19.1596C21.3868 18.2998 20.391 17.7267 18.3994 16.5804L16.9596 15.7516C14.968 14.6053 13.9722 14.0322 13.2254 14.462C12.4785 14.8918 12.4785 16.0382 12.4785 18.3309V19.9882ZM19.0783 15.408C21.07 16.5543 22.0657 17.1275 22.8126 16.6976C23.5594 16.2677 23.5594 15.1213 23.5594 12.8287V11.1713C23.5594 8.87865 23.5594 7.73235 22.8126 7.30248C22.0657 6.87252 21.07 7.44576 19.0783 8.592L17.6386 9.42075C15.647 10.567 14.6512 11.1403 14.6512 12C14.6512 12.8598 15.647 13.4329 17.6386 14.5792L19.0783 15.408ZM18.3994 7.4196C20.391 6.27325 21.3868 5.70013 21.3868 4.84033C21.3868 3.98065 20.391 3.40753 18.3994 2.26105L16.9596 1.43246C14.968 0.286105 13.9722 -0.287132 13.2254 0.142826C12.4785 0.572665 12.4785 1.71902 12.4785 4.01161V5.66905C12.4785 7.96177 12.4785 9.10815 13.2254 9.53798C13.9722 9.9678 14.968 9.39465 16.9596 8.24835L18.3994 7.4196Z" fill="#fff"/>
</svg>