<svg fill="none" xmlns="http://www.w3.org/2000/svg" viewBox="0 0 24 24">
  <path d="M23.6911 11.9999C23.6911 5.37262 18.4813 0 12.0548 0C5.62827 0 0.418457 5.37262 0.418457 11.9999C0.418457 18.6273 5.62827 23.9999 12.0548 23.9999C18.4813 23.9999 23.6911 18.6273 23.6911 11.9999ZM13.7766 10.2242C14.7331 11.2106 16.1854 11.4202 19.0902 11.8396L20.2002 11.9999L19.0902 12.1601C16.1854 12.5795 14.7331 12.7892 13.7766 13.7756C12.8202 14.762 12.6168 16.2597 12.2101 19.2553L12.0548 20.3999L11.8994 19.2553C11.4927 16.2597 11.2894 14.762 10.3329 13.7756C9.37642 12.7892 7.92413 12.5795 5.01934 12.1601L3.90935 11.9999L5.01934 11.8396C7.92413 11.4202 9.37642 11.2106 10.3329 10.2242C11.2894 9.23783 11.4927 7.74023 11.8994 4.74467L12.0548 3.59999L12.2101 4.74454C12.6168 7.74007 12.8202 9.2379 13.7766 10.2242Z" fill="#fff"/>
</svg>