<svg fill="none" xmlns="http://www.w3.org/2000/svg" viewBox="0 0 25 24">
  <path d="M11.7335 11.2546C11.7423 11.2588 11.7512 11.263 11.7599 11.2671C11.7545 11.2661 11.749 11.2651 11.7435 11.264C11.8821 11.3931 12.0064 11.5186 12.1156 11.6395C11.9096 11.5047 11.6937 11.3622 11.4673 11.2113C11.0908 11.1389 10.6864 11.0588 10.2522 10.9689C5.65184 10.0171 2.55861 11.7939 2.55861 12.7138C2.55861 13.1287 2.91741 13.4771 3.56793 13.7509C1.86717 13.4177 0.734375 12.8228 0.734375 12.1442C0.734375 11.5053 1.68027 10.881 3.20755 10.5294C2.00883 9.65955 1.35826 8.79878 1.59361 8.2305C1.99285 7.26665 4.70797 7.30397 7.84197 8.77387C9.54005 9.57022 10.8954 10.4767 11.7335 11.2546ZM11.2116 11.0401C11.0895 10.9581 10.9645 10.8737 10.8367 10.7869C6.95075 8.14717 3.41304 8.60497 3.06096 9.45487C2.93419 9.76087 3.03499 10.1154 3.33341 10.5013C4.27783 10.2974 5.43207 10.1962 6.71503 10.255C8.56085 10.3397 10.1402 10.6504 11.2116 11.0401ZM14.1931 12.9361C14.0169 12.8703 13.855 12.8023 13.7087 12.7328C13.9624 12.7808 14.2159 12.8297 14.4693 12.8798C14.7869 12.8155 15.1049 12.753 15.4232 12.6922C20.0374 11.8111 22.2153 8.98575 21.8634 8.13593C21.7046 7.75253 21.2397 7.56795 20.534 7.5639C22.2328 7.22081 23.507 7.33709 23.7666 7.96395C24.0033 8.53552 23.4154 9.43388 22.2189 10.3158C23.7414 10.6583 24.7343 11.2204 24.7343 11.8557C24.7343 12.8991 22.2115 13.9035 18.7536 13.7449C16.9694 13.663 15.4341 13.37 14.3659 12.9985C14.2062 13.0024 14.0559 13.0007 13.916 12.9936C14.0083 12.9743 14.1007 12.9552 14.1931 12.9361ZM14.9041 12.967C15.0082 12.9881 15.1124 13.0095 15.2165 13.031C19.8168 13.9829 22.9101 12.206 22.9101 11.2862C22.9101 10.9279 22.6426 10.6193 22.151 10.3654C21.3369 10.9538 20.2531 11.5321 18.9642 11.998C17.4192 12.5566 16.0003 12.8694 14.9041 12.967ZM14.4792 5.98066C14.3787 8.1732 13.9592 9.98962 13.4672 11.0255C13.5622 10.5221 13.6617 10.0195 13.7654 9.5178C14.7172 4.91747 12.9404 1.82423 12.0206 1.82423C11.6056 1.82423 11.2571 2.18303 10.9833 2.83355C11.3165 1.13279 11.9115 0 12.5901 0C13.6335 0 14.6379 2.52275 14.4792 5.98066ZM10.9894 18.0193C11.09 15.8269 11.5095 14.0103 12.0015 12.9743C11.9065 13.4778 11.8071 13.9804 11.7033 14.4821C10.7515 19.0825 12.5283 22.1757 13.4482 22.1757C13.857 22.1757 14.2013 21.8273 14.4731 21.1948C14.0948 20.539 13.736 19.7739 13.4268 18.9184C12.6808 16.8542 12.373 15.0155 12.4311 13.8701C12.536 14.3716 12.6364 14.8741 12.7326 15.3773C13.6138 19.9915 16.439 22.1694 17.289 21.8174C17.6722 21.6586 17.857 21.1938 17.8609 20.488C18.204 22.1869 18.0877 23.4611 17.4608 23.7208C16.7512 24.0146 15.5382 23.0376 14.478 21.2032C14.1435 22.8835 13.5523 23.9999 12.8786 23.9999C11.8352 23.9999 10.8308 21.4771 10.9894 18.0193ZM9.71188 6.50986C11.191 8.1312 12.179 9.71227 12.5635 10.7927C12.2747 10.3696 11.9896 9.94388 11.7082 9.5157C9.12837 5.58982 5.6846 4.65899 5.0342 5.30938C4.74092 5.60278 4.74824 6.10282 5.01464 6.75646C4.04744 5.31826 3.66729 4.09654 4.14704 3.61666C4.65565 3.10805 5.99907 3.46042 7.54891 4.56625C7.28392 3.03123 7.4236 1.90097 8.0099 1.65811C8.9738 1.25887 10.8673 3.20527 12.0439 6.4605C12.79 8.52458 13.0978 10.3634 13.0396 11.5087C12.9347 11.0072 12.8343 10.5048 12.7381 10.0015C11.8569 5.38746 9.0317 3.20947 8.1818 3.56143C7.85023 3.69875 7.6673 4.06513 7.62136 4.61838C8.2982 5.10958 9.01235 5.74302 9.71188 6.50986ZM15.7567 17.4901C14.2775 15.8687 13.2897 14.2877 12.9051 13.2071C13.1938 13.6304 13.479 14.056 13.7604 14.4842C16.3402 18.4101 19.7839 19.3409 20.4343 18.6905C20.6685 18.4563 20.7112 18.0904 20.5833 17.6198C19.6945 17.4334 18.6854 17.1007 17.6286 16.605C15.6416 15.6731 14.1238 14.5904 13.3551 13.7394C13.7838 14.0199 14.2102 14.3041 14.634 14.5919C18.5198 17.2316 22.0576 16.7738 22.4096 15.924C22.5683 15.5408 22.3703 15.0815 21.874 14.5797C23.3178 15.5382 24.1367 16.5215 23.877 17.1484C23.619 17.7714 22.3936 17.9761 20.713 17.6462C21.4855 18.9066 21.7559 19.9489 21.3215 20.3833C20.5837 21.121 18.0897 20.0474 15.7567 17.4901ZM13.9436 11.8285L13.9415 11.8292L13.9444 11.8272C14.1731 11.4801 14.4043 11.1347 14.6378 10.7908C17.2776 6.90485 16.8198 3.36715 15.97 3.01519C15.5866 2.85631 15.1274 3.05443 14.6254 3.55075C15.5842 2.10692 16.5673 1.28804 17.1943 1.54772C18.1582 1.94696 18.1206 4.66218 16.6509 7.7961C15.8661 9.4695 14.9743 10.81 14.2041 11.6506C14.5407 11.4227 14.8788 11.1971 15.2186 10.9738C19.1445 8.394 20.0753 4.95035 19.4249 4.29995C19.1315 4.00655 18.6313 4.01386 17.9779 4.28026C19.4161 3.31318 20.6377 2.93279 21.1177 3.41279C21.8554 4.15043 20.7817 6.64462 18.2245 8.9775C16.6749 10.3911 15.1621 11.356 14.0881 11.7745C13.9845 11.8825 13.8834 11.981 13.7854 12.0696C13.838 11.9891 13.8907 11.9087 13.9436 11.8285ZM11.0103 12.3834C11.1927 12.2992 11.3655 12.2282 11.5271 12.1707C11.4253 12.2402 11.3234 12.3094 11.2213 12.3785C11.338 12.3776 11.4493 12.3799 11.5546 12.3852C11.3955 12.4185 11.2308 12.4524 11.0604 12.4871C10.7913 12.6682 10.5212 12.8479 10.2501 13.0261C6.32419 15.6059 5.39336 19.0495 6.04375 19.6999C6.33715 19.9933 6.83719 19.9862 7.49071 19.7197C6.05252 20.6869 4.83092 21.067 4.35092 20.5871C3.91408 20.1502 4.1125 19.0973 4.87811 17.8267C3.20867 18.1553 1.96069 18.0345 1.70401 17.4149C1.30477 16.451 3.25116 14.5576 6.5064 13.3809C8.26925 12.7437 9.8678 12.4262 11.0103 12.3834ZM10.6213 12.5752C10.4363 12.6118 10.2451 12.6491 10.0476 12.6868C5.43336 13.5678 3.25536 16.3931 3.60732 17.243C3.76221 17.617 4.20845 17.8019 4.88555 17.8144C5.41275 16.9427 6.20624 15.9692 7.24411 15.0224C8.45653 13.9164 9.6464 13.085 10.6213 12.5752ZM8.81975 17.5828C9.7517 15.5957 10.8343 14.0779 11.6854 13.3092C11.4049 13.738 11.1206 14.1643 10.8328 14.5881C8.19298 18.4739 8.65093 22.0117 9.50075 22.3636C9.884 22.5226 10.3432 22.3244 10.8451 21.8282C9.88655 23.2721 8.9033 24.0908 8.27637 23.8312C7.31243 23.432 7.34987 20.7167 8.81975 17.5828Z" fill="#fff"/>
</svg>