<svg fill="none" xmlns="http://www.w3.org/2000/svg" viewBox="0 0 25 24">
  <path d="M24.496 5.99998C24.496 2.68631 21.8097 0 18.496 0C15.1824 0 12.4961 2.68631 12.4961 5.99998C12.4961 2.68631 9.80973 0 6.49607 0C3.1824 0 0.496094 2.68631 0.496094 5.99998C0.496094 9.31365 3.1824 11.9999 6.49607 11.9999C3.1824 11.9999 0.496094 14.6863 0.496094 17.9999C0.496094 21.3136 3.1824 23.9999 6.49607 23.9999C9.80973 23.9999 12.4961 21.3136 12.4961 17.9999C12.4961 21.3136 15.1824 23.9999 18.496 23.9999C21.8097 23.9999 24.496 21.3136 24.496 17.9999C24.496 14.687 21.811 12.0013 18.4984 11.9999C21.811 11.9987 24.496 9.3129 24.496 5.99998Z" fill="#fff"/>
</svg>