<svg fill="none" xmlns="http://www.w3.org/2000/svg" viewBox="0 0 25 24">
  <path d="M13.2465 23.9851C19.5951 23.6725 24.6464 18.4262 24.6464 11.9999C24.6464 10.028 24.1707 8.1672 23.328 6.52582C19.9483 8.47702 18.2586 9.45262 16.9806 10.7674C15.4545 12.3377 14.343 14.263 13.7463 16.3697C13.2465 18.1339 13.2465 20.0843 13.2465 23.9851ZM12.0465 23.9851C5.69775 23.6725 0.646484 18.4262 0.646484 11.9999C0.646484 10.028 1.12216 8.1672 1.96504 6.52582C5.34459 8.47702 7.03442 9.45262 8.3123 10.7674C9.83847 12.3377 10.95 14.2629 11.5467 16.3697C12.0465 18.1339 12.0465 20.0843 12.0465 23.9851ZM2.56588 5.4871C5.94519 7.43818 7.63475 8.41365 9.41307 8.8629C11.5353 9.39915 13.7577 9.39915 15.8799 8.8629C17.6581 8.41365 19.3477 7.43818 22.727 5.4871C20.5891 2.18519 16.8729 0 12.6465 0C8.41992 0 4.70367 2.18507 2.56588 5.4871Z" fill="#fff"/>
</svg>