<svg fill="none" xmlns="http://www.w3.org/2000/svg" viewBox="0 0 25 24">
  <path d="M8.38565 0.360085C8.38565 0.161245 8.2244 -0.000753845 8.0258 0.00848609C6.02169 0.101237 4.13039 0.962648 2.74493 2.4137C1.35948 3.86477 0.586426 5.79387 0.586426 7.80015C0.586426 9.8064 1.35948 11.7355 2.74493 13.1865C4.13039 14.6376 6.02169 15.499 8.0258 15.5917C8.2244 15.6009 8.38565 15.4389 8.38565 15.24V0.360085ZM24.2257 7.80007C24.4245 7.80007 24.5865 7.63875 24.5773 7.44018C24.4878 5.498 23.676 3.65932 22.3011 2.28464C21.2103 1.19374 19.8205 0.450825 18.3074 0.149863C16.7944 -0.151099 15.226 0.00340855 13.8008 0.593844C12.8544 0.985785 11.9945 1.56031 11.2702 2.28462C10.5459 3.00893 9.97138 3.86881 9.57943 4.81519C9.23375 5.64964 9.03568 6.5378 8.99398 7.44006C8.98483 7.63875 9.14683 7.80007 9.34565 7.80007H24.2257ZM16.7857 23.64C16.7857 23.8388 16.9469 24.0008 17.1455 23.9918C18.0478 23.9501 18.9361 23.752 19.7705 23.4062C20.7169 23.0143 21.5768 22.4399 22.3012 21.7155C23.0254 20.9912 23.6 20.1313 23.9919 19.1849C24.3839 18.2386 24.5857 17.2244 24.5857 16.2C24.5857 15.1757 24.3839 14.1615 23.9919 13.2151C23.6 12.2687 23.0255 11.4089 22.3012 10.6845C21.5769 9.96023 20.7169 9.38565 19.7705 8.99385C18.9361 8.6481 18.0478 8.45002 17.1455 8.40832C16.9469 8.39925 16.7857 8.56125 16.7857 8.76008V23.64ZM0.945703 16.2C0.746863 16.2 0.584864 16.3613 0.594103 16.5599C0.683708 18.5021 1.49547 20.3407 2.87026 21.7154C3.5945 22.4398 4.45435 23.0144 5.4007 23.4064C6.34705 23.7984 7.36135 24.0001 8.38565 24C9.41 24.0001 10.4243 23.7983 11.3707 23.4064C12.317 23.0143 13.1768 22.4398 13.9011 21.7154C14.6254 20.9911 15.2 20.1313 15.5919 19.1849C15.9376 18.3504 16.1357 17.4622 16.1774 16.5599C16.1865 16.3613 16.0245 16.2 15.8257 16.2H0.945703Z" fill="#fff"/>
</svg>